<svg data-name="Layer 1" xmlns="http://www.w3.org/2000/svg" width="1018.4" height="725.2"><ellipse cx="161.2" cy="670.8" rx="89.5" ry="15.1" opacity=".1"/><ellipse cx="487.2" cy="707.8" rx="89.5" ry="15.1" opacity=".1"/><path d="M75 380l20 30 1-50h1a97 97 0 00-24-13v1zM72 347a51 51 0 00-27-2l29 34zM124 464l3 7 18-53h1l-7-12-15 58zM113 441l10-56a152 152 0 00-26-24l-1 50q10 15 17 30zM17 401h-1a127 127 0 005 25l88 9-14-24z" fill="#e6e6e6"/><path d="M22 427v-1l3 9h-1l89 7-3-6zM123 462l15-57v1a182 182 0 00-14-20l-10 57 9 19zM127 474l-86-8a176 176 0 0015 18v-1l79 16a219 219 0 00-8-25zM45 345c-12 3-20 11-25 22l53 12-28-34zM129 476a218 218 0 017 22l20-51h1a86 86 0 00-7-20l-4-8-18 54 1 3zM94 410l-20-29-54-12v-1c-3 9-5 20-4 32zM40 465l87 8a295 295 0 00-13-29l-89-8 5 12a106 106 0 0010 17zM249 481l1 1a97 97 0 00-11-25h1l-20 27-3 35zM239 456a51 51 0 00-19-18v44zM205 579l-3 8 48-30 1 1 2-13-48 35zM211 555l43-37a152 152 0 00-4-35l-33 38-6 34zM254 519l-44 38-5 21 48-35v1a182 182 0 001-25z" fill="#e6e6e6"/><path d="M170 647v-2a151 151 0 0020-30l-27-33-1-4 28 36a219 219 0 0010-25l-55-56v-1l56 56a295 295 0 008-31l-55-55v-1l56 55 1-7-55-56v-2l56 56 4-27-54-57v-1l-4 6a112 112 0 00-1-19l-21 52a167 167 0 014 21l-1 4 1 1v2l-1-1v2a158 158 0 00-4-29l-78-16 12 11a96 96 0 00-25-4l12 31 28 21-14-47 2 2 14 47q14 11 26 23l-7-44 1 1 7 44 15 16-4-48h2l3 49 5 6 1-49h1l-1 51 2 2a217 217 0 0113 19l1-4 1 4v2l1 3 2 5-4-7-80 9c42 21 94 32 97 33l-3-11 1-1v2h1l2 7v-9c15-7 52-28 71-60l-50 26a153 153 0 01-20 32zm-17-77v-2l2 1v2zM219 438l1-1c-11-5-23-4-34 2l33 43v-44z" fill="#e6e6e6"/><path d="M201 591a217 217 0 01-9 22l48-26a86 86 0 008-20l2-8-49 30v2zM219 484l-34-44 1-1c-9 5-17 12-24 22l54 58 3-35zM43 492a51 51 0 00-26 6c3 1 18 10 37 24zM85 546L7 561v-1a127 127 0 0012 22l86-18-20-18zM112 570l-5-5-87 19v-1l5 7zM150 617a219 219 0 00-15-21l-85 19a176 176 0 0020 12v-1z" fill="#e6e6e6"/><path d="M17 499v-1c-11 7-16 17-17 29l54-5-37-23zM56 523l-56 6v-1c0 9 2 20 7 31l77-14-28-22zM134 595a295 295 0 00-21-24l-87 20 8 10a106 106 0 0015 13l85-19z" fill="#e6e6e6"/><path d="M75 380l20 30 1-50h1a97 97 0 00-24-13v1zM72 347a51 51 0 00-27-2l29 34zM124 464l3 7 18-53h1l-7-12-15 58zM113 441l10-56a152 152 0 00-26-24l-1 50q10 15 17 30zM17 401h-1a127 127 0 005 25l88 9-14-24z" fill="#6c63ff"/><path d="M22 427v-1l3 9h-1l89 7-3-6zM123 462l15-57v1a182 182 0 00-14-20l-10 57 9 19zM127 474l-86-8a176 176 0 0015 18v-1l79 16a219 219 0 00-8-25zM45 345c-12 3-20 11-25 22l53 12-28-34zM129 476a218 218 0 017 22l20-51h1a86 86 0 00-7-20l-4-8-18 54 1 3zM94 410l-20-29-54-12v-1c-3 9-5 20-4 32zM40 465l87 8a295 295 0 00-13-29l-89-8 5 12a106 106 0 0010 17zM249 481l1 1a97 97 0 00-11-25h1l-20 27-3 35zM239 456a51 51 0 00-19-18v44zM205 579l-3 8 48-30 1 1 2-13-48 35zM211 555l43-37a152 152 0 00-4-35l-33 38-6 34zM254 519l-44 38-5 21 48-35v1a182 182 0 001-25z" fill="#6c63ff"/><path d="M170 647v-2a151 151 0 0020-30l-27-33-1-4 28 36a219 219 0 0010-25l-55-56v-1l56 56a295 295 0 008-31l-55-55v-1l56 55 1-7-55-56v-2l56 56 4-27-54-57v-1l-4 6a112 112 0 00-1-19l-21 52a167 167 0 014 21l-1 4 1 1v2l-1-1v2a158 158 0 00-4-29l-78-16 12 11a96 96 0 00-25-4l12 31 28 21-14-47 2 2 14 47q14 11 26 23l-7-44 1 1 7 44 15 16-4-48h2l3 49 5 6 1-49h1l-1 51 2 2a217 217 0 0113 19l1-4 1 4v2l1 3 2 5-4-7-80 9c42 21 94 32 97 33l-3-11 1-1v2h1l2 7v-9c15-7 52-28 71-60l-50 26a153 153 0 01-20 32zm-17-77v-2l2 1v2zM219 438l1-1c-11-5-23-4-34 2l33 43v-44z" fill="#6c63ff"/><path d="M201 591a217 217 0 01-9 22l48-26a86 86 0 008-20l2-8-49 30v2zM219 484l-34-44 1-1c-9 5-17 12-24 22l54 58 3-35zM43 492a51 51 0 00-26 6c3 1 18 10 37 24zM85 546L7 561v-1a127 127 0 0012 22l86-18-20-18zM112 570l-5-5-87 19v-1l5 7zM150 617a219 219 0 00-15-21l-85 19a176 176 0 0020 12v-1z" fill="#6c63ff"/><path d="M17 499v-1c-11 7-16 17-17 29l54-5-37-23zM56 523l-56 6v-1c0 9 2 20 7 31l77-14-28-22zM134 595a295 295 0 00-21-24l-87 20 8 10a106 106 0 0015 13l85-19z" fill="#6c63ff"/><rect x="479.3" y="415" width="15" height="110" fill="#3f3d56"/><rect x="656.3" y="415" width="15" height="110" fill="#3f3d56"/><rect x="302.3" y="398" width="546" height="25" fill="#e6e6e6"/><rect x="302.3" y="477" width="546" height="25" fill="#e6e6e6"/><rect x="302.3" y="431" width="546" height="15" fill="#e6e6e6"/><rect x="302.3" y="454" width="546" height="15" fill="#e6e6e6"/><rect x="300.8" y="393.5" width="17" height="132" fill="#3f3d56"/><rect x="831.3" y="393" width="17" height="132" fill="#3f3d56"/><rect x="254.3" y="560" width="17" height="137" fill="#3f3d56"/><rect x="310.3" y="555" width="17" height="73" fill="#3f3d56"/><rect x="827.3" y="555" width="17" height="73" fill="#3f3d56"/><rect x="875.3" y="560" width="17" height="137" fill="#3f3d56"/><rect x="254.3" y="560" width="638" height="18" fill="#3f3d56"/><polygon points="300.276 520 254.276 560 892.276 560 848.276 520 300.276 520" fill="#e6e6e6"/><path d="M200 28v-1l-13-7h-2v-1h-26l-6 1h-21l-6 7v1c-1 2-9 60 13 78l10 4h6l-1-2 5 2h17l10-4c1-1 23-27 14-78z" fill="#6c63ff" opacity=".1"/><rect x="159.3" y="85" width="10" height="26" fill="#e6e6e6"/><rect x="154.8" y="144.5" width="18" height="500" fill="#3f3d56"/><rect x="150.3" y="136" width="27" height="17" fill="#3f3d56"/><polygon points="140.276 105 157.276 123 150.276 136 164.276 139 177.276 136 169.276 122 185.276 105 140.276 105" fill="#3f3d56"/><path d="M127 28l-8-8 6-6h76l6 7-9 7s-48-2-71 0z" fill="#3f3d56"/><path d="M200 28v-1l-13-7-5-2-32-3-18 5-6 7v1c-1 2-9 60 13 78l10 4 8 4-2-4-3-5c-3-19-10-67-6-77l18-5 16 6c1 7 9 57-4 75v6l10-4c1-1 23-27 14-78zm-16 76l-5 2v-1c14-20 5-75 4-78v-1l-16-6-3-1-3 1-17 6c-7 12 4 77 5 79l1 3-9-4c-20-17-13-70-12-75l5-7 8-2 8-1h14l17 1 16 9c8 46-10 72-13 75z" fill="#3f3d56"/><ellipse cx="164.3" cy="14" rx="27" ry="14" fill="#3f3d56"/><path d="M150 619l-16 51s25 14 59 0l-16-51z" fill="#3f3d56"/><circle cx="164.3" cy="80" r="8" fill="#6c63ff"/><path d="M434 359a34 34 0 019-4 236 236 0 0165-15c20-1 41 1 56 13a19 19 0 015 6c2 5 2 9 1 14a15 15 0 01-1 5c-2 4-7 5-12 5s-8-3-12-3a57 57 0 00-8-1l-27-2c-17-1-34-2-51 2a50 50 0 00-14 5c-4 2-7 5-10 1-6-7-10-19-1-26z" fill="#2f2e41"/><path d="M475 371s37-16 50 3-7 11-7 11l-24 8-26-5z" fill="#f2f2f2"/><path d="M477 359s5 24 2 30 21 15 21 15l24-10s-7-38 0-46z" fill="#ffb9b9"/><path d="M477 359s5 24 2 30 21 15 21 15l24-10s-7-38 0-46z" opacity=".1"/><path d="M454 645l8 22a2 2 0 002 1h23c2 0 6 0 6-3 0-2-2-3-4-5-4-3-5-9-6-14a48 48 0 00-18-24 11 11 0 00-4-2 11 11 0 00-4 0c-4 1-19 4-16 9 1 3 5 5 7 8a52 52 0 016 8zM531 619a51 51 0 01-2 5l-10 16c-2 3-4 7-4 11s1 8 4 10c3 3 8 3 12 2l12-1c-1-8 5-15 7-22l1-7a32 32 0 012-5 72 72 0 007-20l-22-1c-5 1-5 8-7 12z" fill="#575a89"/><path d="M378 498c-6 9-5 21-1 31s11 18 15 28l8 18c4 8 9 14 12 22 2 5 2 11 5 15a47 47 0 005 7 63 63 0 0113 23c2-7 10-12 17-14s16 0 23 1c-4-7-8-13-11-21l-5-22c-3-15-10-29-18-43l37-3a144 144 0 0118-1l29 4c10 1 19 1 28-3a134 134 0 00-24 79 31 31 0 0146 11c14-20 13-48 24-69l8-13 12-27c3-9 6-18 3-26a27 27 0 00-5-8c-7-8-16-13-26-13-15-1-27 11-40 18-16 8-34 12-52 11-18-2-35-8-53-13a251 251 0 00-26-7c-8-1-15 0-22 2-8 2-16 6-20 13z" fill="#2f2e41"/><path d="M535 336a38 38 0 01-38 37 37 37 0 01-6 0 38 38 0 1144-37z" fill="#ffb9b9"/><path d="M475 371l10 6c3 3 10 16 22 7s14-13 18-13 9 7 9 7l34 103a144 144 0 01-32 27c-20 13-44 19-55 14s-33-9-36-19l-10-40 17-76z" fill="#f2f2f2"/><path d="M471 476c2-6 3-13 3-19a116 116 0 00-1-20l-5-24a104 104 0 01-2-22c0-4 0-7 2-10l4-6c1-4-2-9-7-11s-11-2-16 0l-15 6-10 6c-4 4-6 10-7 15s-2 9-1 14c1 7 7 12 10 19 4 7 3 16 2 25l-5 24c-1 8 1 18 6 25 2 2 8 9 12 8 3-1 7-8 10-10 7-6 15-11 20-20zM536 367c0 7-3 14-6 20l-11 18a41 41 0 00-2 25 82 82 0 003 9l7 19a33 33 0 004 8 27 27 0 005 5 50 50 0 0018 9c6 2 13 2 19-1a284 284 0 0113-75c1-4 2-9 1-14s-5-9-9-12c-12-11-25-22-41-24-9-1-1 8-1 13z" fill="#2f2e41"/><path d="M454 513l2 5a32 32 0 006 7c8 10 18 19 31 19a9 9 0 003 0c3-1 4-3 4-6 1-4-1-9-3-14-5-9-10-19-19-25-8-7-20-8-30-5-4 1-12 4-6 8 5 3 9 6 12 11zM508 390c-2-3-3-7-6-9a22 22 0 00-9-5 49 49 0 00-13-2c-5 0-11 2-14 7-2 3 0 8 2 12a12 12 0 003 5l8 2 12 5 9 6 16 9v-13l-8-17z" fill="#ffb9b9"/><path d="M462 664c-4 5-3 12-7 18l-12 11a30 30 0 00-3 4c-3 6-6 13-2 19 2 4 8 6 13 7 6 2 13 3 19 2s13-5 16-12a44 44 0 011-4c4-7 15-7 18-14 3-5 1-11-2-16l-7-15c-2-5-12-2-17-3-6-1-13-3-17 3z" fill="#2f2e41"/><path d="M516 651c-3 2-5 6-6 9a96 96 0 00-6 36c1 7 8 13 15 15s14 2 21 1l7-1c4-2 5-7 5-11s-3-8-5-11-5-8-6-12c-1-7 2-17-2-23s-17-7-23-3zM534 316a10 10 0 00-4-5 22 22 0 00-1-8c-2-6-8-6-13-9l-3-4a17 17 0 00-7-7c-3-2-6-4-10-4-8-1-14 7-22 9l-11 2c-4 1-7 4-7 7v5l-5 8c-5 6-4 15-1 21a29 29 0 003 4 23 23 0 002 9c4 6 9 11 16 15a36 36 0 01-1-7 4 4 0 010-2l4-2c3-2 4-6 4-9l-1-10a5 5 0 012-3 6 6 0 014-1c5 0 12-1 17-3l5-3c4-1 9 2 11 6l6 12c2 4 6 7 11 6a2 2 0 001 0 2 2 0 001-1v-17a26 26 0 00-1-9zM415 405c-4 5-8 10-10 17l-2 11c-3 12-11 23-12 35a17 17 0 002 8c2 5 7 8 13 10s11 2 15 6a46 46 0 016 7 56 56 0 0026 18c-1-6-1-13 4-16 2-2 5-3 8-3l15-1a188 188 0 00-32-25c-4-3-9-5-10-10-2-2-2-5-2-8a217 217 0 00-2-33l-5-22c0-2-4-12-7-9l-2 7a46 46 0 01-5 8zM584 385l6 13a30 30 0 014 16v38l-1 15a12 12 0 01-2 4 14 14 0 01-4 3c-11 7-26 11-38 5a53 53 0 01-8-5l-13-12-8-16a128 128 0 00-17-29l-3-4c0-3 4-5 7-6 5-2 10-7 11-12 11 14 23 30 41 35a2 2 0 002-2l2-12a71 71 0 018-22c2-4 9-18 13-9z" fill="#2f2e41"/><path d="M435 421a57 57 0 01-5 26 21 21 0 00-2 5c-1 5 1 9 4 12a47 47 0 0021 14M565 414l1 7a75 75 0 013 22 1 1 0 01-1 1c-3 0-6 0-8-2" opacity=".1"/><rect x="661.1" y="127.5" width="357.3" height="70.5" fill="#e6e6e6"/><rect x="661.1" y="210" width="357.3" height="70.5" fill="#e6e6e6"/><circle cx="698.7" cy="162.3" r="21.1" fill="#6c63ff"/><rect x="749.1" y="154.1" width="208" height="4.6" fill="#6c63ff"/><rect x="749.1" y="166" width="208" height="4.6" fill="#6c63ff"/><circle cx="698.7" cy="245.7" r="21.1" fill="#ccc"/><rect x="749.1" y="237.4" width="208" height="4.6" fill="#ccc"/><rect x="749.1" y="249.4" width="208" height="4.6" fill="#ccc"/><rect x="661.1" y="291" width="357.3" height="70.5" fill="#e6e6e6"/><circle cx="698.7" cy="326.7" r="21.1" fill="#ccc"/><rect x="749.1" y="318.4" width="208" height="4.6" fill="#ccc"/><rect x="749.1" y="330.4" width="208" height="4.6" fill="#ccc"/><polygon points="696.766 170.281 689.219 160.218 691.007 158.878 697.155 167.075 721.361 147.27 722.776 149 696.766 170.281" fill="#f2f2f2"/></svg>